HIERARCHY
ROOT Reference
{
  OFFSET 0 0 0
  CHANNELS 6 Xposition Yposition Zposition Zrotation Xrotation Yrotation
  JOINT Hips
  {
    OFFSET 251.394 724.17 483.536
    CHANNELS 3 Zrotation Xrotation Yrotation
    JOINT RightUpLeg
    {
      OFFSET -0.450515 -23.4426 -1.37224
      CHANNELS 3 Zrotation Xrotation Yrotation
      JOINT RightLeg
      {
        OFFSET 112.821 0.0872427 -0.321027
        CHANNELS 3 Zrotation Xrotation Yrotation
        JOINT RightFoot
        {
          OFFSET 105.718 0.000193788 0.0213165
          CHANNELS 3 Zrotation Xrotation Yrotation
          JOINT RightToeBase
          {
            OFFSET 37.638 -0.000116272 0.00224792
            CHANNELS 3 Zrotation Xrotation Yrotation
            JOINT RightToeEnd
            {
              OFFSET 21.2112 0.114605 -0.000138184
              CHANNELS 3 Zrotation Xrotation Yrotation
              End Site
              {
                OFFSET 0 0 0
              }
            }
          }
        }
      }
    }
    JOINT LeftUpLeg
    {
      OFFSET -0.449508 23.4315 -1.37054
      CHANNELS 3 Zrotation Xrotation Yrotation
      JOINT LeftLeg
      {
        OFFSET 112.821 -0.0485242 -0.372458
        CHANNELS 3 Zrotation Xrotation Yrotation
        JOINT LeftFoot
        {
          OFFSET 105.716 0.00496094 -0.0229443
          CHANNELS 3 Zrotation Xrotation Yrotation
          JOINT LeftToeBase
          {
            OFFSET 37.639 0 0.00158905
            CHANNELS 3 Zrotation Xrotation Yrotation
            JOINT LeftToeEnd
            {
              OFFSET 21.2113 -0.125031 -0.00017438
              CHANNELS 3 Zrotation Xrotation Yrotation
              End Site
              {
                OFFSET 0 0 0
              }
            }
          }
        }
      }
    }
    JOINT Spine
    {
      OFFSET -5.01225 0.000463591 -9.60395
      CHANNELS 3 Zrotation Xrotation Yrotation
      JOINT Spine1
      {
        OFFSET 26.0222 -0.000271301 -0.000155029
        CHANNELS 3 Zrotation Xrotation Yrotation
        JOINT Spine2
        {
          OFFSET 27.173 -0.000155029 -0.000310058
          CHANNELS 3 Zrotation Xrotation Yrotation
          JOINT Spine3
          {
            OFFSET 36.3953 -0.000232544 7.75146e-005
            CHANNELS 3 Zrotation Xrotation Yrotation
            JOINT Neck
            {
              OFFSET 36.4331 0 -3.00261
              CHANNELS 3 Zrotation Xrotation Yrotation
              JOINT Head
              {
                OFFSET 23.0407 -0.000232544 -0.000310058
                CHANNELS 3 Zrotation Xrotation Yrotation
                End Site
                {
                  OFFSET 0 0 0
                }
              }
            }
            JOINT LeftShoulder
            {
              OFFSET 20.1317 6.74168 -12.6061
              CHANNELS 3 Zrotation Xrotation Yrotation
              JOINT LeftArm
              {
                OFFSET 34.2172 -5.81359e-005 7.75146e-005
                CHANNELS 3 Zrotation Xrotation Yrotation
                JOINT LeftForeArm
                {
                  OFFSET 65.4129 -0.0821605 0.0585235
                  CHANNELS 3 Zrotation Xrotation Yrotation
                  JOINT LeftHand
                  {
                    OFFSET 67.3883 0.0359667 0.0112396
                    CHANNELS 3 Zrotation Xrotation Yrotation
                    JOINT LeftHandThumb1
                    {
                      OFFSET 8.78386 2.85353 -6.05362
                      CHANNELS 3 Zrotation Xrotation Yrotation
                      JOINT LeftHandThumb2
                      {
                        OFFSET 8.25498 -0.000116272 -0.000174407
                        CHANNELS 3 Zrotation Xrotation Yrotation
                        JOINT LeftHandThumb3
                        {
                          OFFSET 7.24822 0.000310058 5.81358e-005
                          CHANNELS 3 Zrotation Xrotation Yrotation
                          JOINT LeftHandThumb4
                          {
                            OFFSET 7.0004 -3.87568e-005 -0.000310057
                            CHANNELS 3 Zrotation Xrotation Yrotation
                            End Site
                            {
                              OFFSET 0 0 0
                            }
                          }
                        }
                      }
                    }
                    JOINT LeftHandIndex1
                    {
                      OFFSET 24.0991 -1.01537 -5.40558
                      CHANNELS 3 Zrotation Xrotation Yrotation
                      JOINT LeftHandIndex2
                      {
                        OFFSET 7.26759 -0.000290679 -0.000465086
                        CHANNELS 3 Zrotation Xrotation Yrotation
                        JOINT LeftHandIndex3
                        {
                          OFFSET 7.13628 -1.93787e-005 0.000232543
                          CHANNELS 3 Zrotation Xrotation Yrotation
                          JOINT LeftHandIndex4
                          {
                            OFFSET 5.46699 9.68932e-005 -0.000387571
                            CHANNELS 3 Zrotation Xrotation Yrotation
                            End Site
                            {
                              OFFSET 0 0 0
                            }
                          }
                        }
                      }
                    }
                    JOINT LeftHandMiddle1
                    {
                      OFFSET 24.4604 -2.52837 0.918567
                      CHANNELS 3 Zrotation Xrotation Yrotation
                      JOINT LeftHandMiddle2
                      {
                        OFFSET 7.41627 -5.81359e-005 0.000116271
                        CHANNELS 3 Zrotation Xrotation Yrotation
                        JOINT LeftHandMiddle3
                        {
                          OFFSET 8.76829 3.87573e-005 -7.75142e-005
                          CHANNELS 3 Zrotation Xrotation Yrotation
                          JOINT LeftHandMiddle4
                          {
                            OFFSET 6.07588 -0.00013565 -5.81356e-005
                            CHANNELS 3 Zrotation Xrotation Yrotation
                            End Site
                            {
                              OFFSET 0 0 0
                            }
                          }
                        }
                      }
                    }
                    JOINT LeftHandRing1
                    {
                      OFFSET 22.465 -1.97467 6.3466
                      CHANNELS 3 Zrotation Xrotation Yrotation
                      JOINT LeftHandRing2
                      {
                        OFFSET 7.36666 -0.000232544 0.000387571
                        CHANNELS 3 Zrotation Xrotation Yrotation
                        JOINT LeftHandRing3
                        {
                          OFFSET 8.07624 -0.000465087 -0.000203475
                          CHANNELS 3 Zrotation Xrotation Yrotation
                          JOINT LeftHandRing4
                          {
                            OFFSET 6.04433 0.00013565 3.87571e-005
                            CHANNELS 3 Zrotation Xrotation Yrotation
                            End Site
                            {
                              OFFSET 0 0 0
                            }
                          }
                        }
                      }
                    }
                    JOINT LeftHandPinky1
                    {
                      OFFSET 19.5278 0.352933 10.4295
                      CHANNELS 3 Zrotation Xrotation Yrotation
                      JOINT LeftHandPinky2
                      {
                        OFFSET 6.16525 5.8136e-005 -0.000251921
                        CHANNELS 3 Zrotation Xrotation Yrotation
                        JOINT LeftHandPinky3
                        {
                          OFFSET 6.14448 -0.000329434 -0.00510625
                          CHANNELS 3 Zrotation Xrotation Yrotation
                          JOINT LeftHandPinky4
                          {
                            OFFSET 4.98555 0.000116272 0.000116271
                            CHANNELS 3 Zrotation Xrotation Yrotation
                            End Site
                            {
                              OFFSET 0 0 0
                            }
                          }
                        }
                      }
                    }
                  }
                }
              }
            }
            JOINT RightShoulder
            {
              OFFSET 20.1309 -6.74152 -12.6063
              CHANNELS 3 Zrotation Xrotation Yrotation
              JOINT RightArm
              {
                OFFSET 34.2171 7.75146e-005 7.75146e-005
                CHANNELS 3 Zrotation Xrotation Yrotation
                JOINT RightForeArm
                {
                  OFFSET 65.4492 0.242543 -0.176501
                  CHANNELS 3 Zrotation Xrotation Yrotation
                  JOINT RightHand
                  {
                    OFFSET 67.3888 -0.0867388 0.0597442
                    CHANNELS 3 Zrotation Xrotation Yrotation
                    JOINT RightHandThumb1
                    {
                      OFFSET 8.78307 -2.85357 -6.05302
                      CHANNELS 3 Zrotation Xrotation Yrotation
                      JOINT RightHandThumb2
                      {
                        OFFSET 8.25493 -7.75145e-005 0
                        CHANNELS 3 Zrotation Xrotation Yrotation
                        JOINT RightHandThumb3
                        {
                          OFFSET 7.24797 -0.000174408 0.000155029
                          CHANNELS 3 Zrotation Xrotation Yrotation
                          JOINT RightHandThumb4
                          {
                            OFFSET 7.00062 0 0
                            CHANNELS 3 Zrotation Xrotation Yrotation
                            End Site
                            {
                              OFFSET 0 0 0
                            }
                          }
                        }
                      }
                    }
                    JOINT RightHandIndex1
                    {
                      OFFSET 24.0991 1.01525 -5.40578
                      CHANNELS 3 Zrotation Xrotation Yrotation
                      JOINT RightHandIndex2
                      {
                        OFFSET 7.26773 7.75144e-005 0.000232543
                        CHANNELS 3 Zrotation Xrotation Yrotation
                        JOINT RightHandIndex3
                        {
                          OFFSET 7.13572 -0.000310058 3.87571e-005
                          CHANNELS 3 Zrotation Xrotation Yrotation
                          JOINT RightHandIndex4
                          {
                            OFFSET 5.46717 0 3.87572e-005
                            CHANNELS 3 Zrotation Xrotation Yrotation
                            End Site
                            {
                              OFFSET 0 0 0
                            }
                          }
                        }
                      }
                    }
                    JOINT RightHandMiddle1
                    {
                      OFFSET 24.4603 2.52899 0.918547
                      CHANNELS 3 Zrotation Xrotation Yrotation
                      JOINT RightHandMiddle2
                      {
                        OFFSET 7.41641 -0.000116272 -0.000116272
                        CHANNELS 3 Zrotation Xrotation Yrotation
                        JOINT RightHandMiddle3
                        {
                          OFFSET 8.76765 -3.87577e-005 0.000232543
                          CHANNELS 3 Zrotation Xrotation Yrotation
                          JOINT RightHandMiddle4
                          {
                            OFFSET 6.07609 -0.000193787 -0.000116271
                            CHANNELS 3 Zrotation Xrotation Yrotation
                            End Site
                            {
                              OFFSET 0 0 0
                            }
                          }
                        }
                      }
                    }
                    JOINT RightHandRing1
                    {
                      OFFSET 22.465 1.97571 6.34696
                      CHANNELS 3 Zrotation Xrotation Yrotation
                      JOINT RightHandRing2
                      {
                        OFFSET 7.36684 0.000193786 0.000155029
                        CHANNELS 3 Zrotation Xrotation Yrotation
                        JOINT RightHandRing3
                        {
                          OFFSET 8.07614 -0.000271301 0
                          CHANNELS 3 Zrotation Xrotation Yrotation
                          JOINT RightHandRing4
                          {
                            OFFSET 6.04468 0.000232543 0
                            CHANNELS 3 Zrotation Xrotation Yrotation
                            End Site
                            {
                              OFFSET 0 0 0
                            }
                          }
                        }
                      }
                    }
                    JOINT RightHandPinky1
                    {
                      OFFSET 19.5277 -0.352346 10.4296
                      CHANNELS 3 Zrotation Xrotation Yrotation
                      JOINT RightHandPinky2
                      {
                        OFFSET 6.16508 0 0.000232543
                        CHANNELS 3 Zrotation Xrotation Yrotation
                        JOINT RightHandPinky3
                        {
                          OFFSET 6.14396 -0.000155048 -0.0048834
                          CHANNELS 3 Zrotation Xrotation Yrotation
                          JOINT RightHandPinky4
                          {
                            OFFSET 4.98577 -7.75146e-005 -7.75143e-005
                            CHANNELS 3 Zrotation Xrotation Yrotation
                            End Site
                            {
                              OFFSET 0 0 0
                            }
                          }
                        }
                      }
                    }
                  }
                }
              }
            }
          }
        }
      }
    }
  }
}
MOTION
Frames:	5
Frame Time:	0.0333333
0 0 0 -90 -7.01671e-015 -180 -15.072 -46.145 -124.982 -178.271 -39.8361 -114.599 -6.76599 0.756187 -96.2439 13.5847 -3.80305 35.5258 12.6394 -8.51499 19.8438 3.43777e-005 1.1996e-005 -86.4974 169.408 25.4611 -109.995 1.23882 -0.0397509 -91.1364 12.7716 23.5127 2.17784 -24.3633 2.75969 21.6644 -1.73082e-005 -0.000124612 -86.4975 0.188508 1.24658 130.487 3.8703 6.88382 -9.82329 11.631 2.36049 -11.1671 0.290995 6.58124 -9.83897 -37.4192 34.0268 41.8971 14.6031 24.2588 62.5462 75.2875 26.7534 -11.5644 39.5374 -4.16579 84.0631 15.1764 -1.41289 116.068 -34.6014 -28.6213 -21.4698 -149.19 -52.586 162.509 0.000376421 -2.9488e-005 14.2877 0.000180856 0.000138026 25.7997 0.00491681 -0.00243225 -0.00362759 99.0115 70.8354 -98.472 0.000162709 -0.00099292 50.8414 0.0015978 0.000125722 51.8876 -0.000598498 -0.000502631 -0.000457629 100.125 82.1935 -69.0638 0.000204865 -0.000132134 65.9844 0.00126306 -7.24542e-005 52.0322 -0.000558369 -0.000429322 0.000113122 16.1759 83.9654 33.9719 0.000612468 -0.000793997 51.8228 0.00184547 0.000888288 54.0686 -0.000665086 -0.00064525 0.000691128 -10.8883 79.6449 61.0619 0.00145058 -0.000343475 50.0403 0.00782467 0.00763415 45.7486 -9.22052e-005 -0.000225977 -0.000410667 -69.0718 -26.0485 10.6156 -32.3354 43.1949 73.6979 -6.13224 30.4628 106.574 68.1351 17.5276 -79.9199 166.539 51.8126 143.541 -6.80234e-005 6.76429e-005 8.20611 0.00826241 0.00405796 25.7892 3.05177e-005 -7.62939e-005 -180 -104.535 -76.8088 -83.884 -0.000219237 0.0001156 53.542 0.000146623 -1.94494e-005 51.887 -9.1553e-005 -4.57764e-005 -180 -52.7243 -86.2341 -18.7018 -0.00010505 -6.12649e-005 65.9845 4.94279e-005 9.50315e-005 35.6467 -7.0167e-015 3.05176e-005 180 -16.1907 -83.9799 32.8652 -1.89823e-005 0.000166458 42.6429 4.19268e-005 -0.000199781 45.1194 3.05177e-005 -4.57764e-005 180 -9.51536 -81.9539 23.523 -0.000121706 0.000213911 47.4169 -4.89958e-005 -8.9364e-006 37.1283 3.05176e-005 -1.52588e-005 -180 
0 0 0 -90 -7.01671e-015 -180 -14.5349 -47.0551 -124.13 -177.785 -40.1561 -114.157 -7.24123 0.880858 -96.8258 14.803 -2.58473 36.0668 12.7528 -9.13004 18.2335 3.32508e-005 -3.49654e-007 -86.4974 169.229 26.1188 -109.608 1.26193 -0.0633435 -92.1802 12.4883 23.8909 2.03333 -25.3252 3.1374 20.7958 -1.67892e-005 3.94037e-006 -86.4975 0.192966 1.2806 130.548 3.99021 6.51853 -9.98934 11.4019 2.17719 -11.0917 0.145101 5.78664 -9.6867 -37.8618 34.7019 41.5629 14.0838 24.394 62.5876 75.7279 26.8886 -11.8197 39.4165 -5.03271 84.8401 15.3781 -1.53688 115.529 -34.8456 -26.3619 -21.4502 -148.489 -52.5375 163.252 0.000376526 -3.02232e-005 14.5548 0.000181647 0.000138164 25.7996 0.00491681 -0.00245095 -0.00362759 98.6596 70.5751 -98.8969 0.000163803 -0.000996091 50.7326 0.0015994 0.000121334 51.8876 -0.000598498 -0.000506047 -0.000457628 100.876 81.9765 -69.9277 0.000207781 -0.000138922 65.9844 0.00126985 -6.11308e-005 52.6865 -0.000558369 -0.000274922 0.000115472 16.1761 83.9653 34.0181 0.000616291 -0.000791618 52.1963 0.0018463 0.000902122 54.4231 -0.000665087 -0.000649432 0.000691128 -11.2869 79.4955 62.1389 0.00145969 -0.000346206 50.1556 0.000626933 0.000285958 46.109 -9.30575e-005 -1.87814e-005 -0.000410239 -68.2378 -25.7714 11.6044 -32.7949 43.1374 72.9916 -6.09838 31.0311 107.083 68.2688 18.3457 -80.0993 167.197 51.6994 142.817 -6.70649e-005 6.73221e-005 7.95869 0.00861756 0.00422546 25.7888 3.05176e-005 -0.000106812 -180 -104.502 -77.0227 -83.0594 -0.000213761 0.000123868 53.6509 0.000157053 -7.76769e-005 51.887 -9.1553e-005 -9.15528e-005 -180 -49.2376 -86.2721 -15.0991 -0.000105753 -0.000130823 65.9844 5.94618e-005 9.35025e-005 34.9958 -3.24612e-014 3.05176e-005 -180 -16.1914 -83.9804 32.82 -1.77598e-005 0.000171265 42.2816 4.15565e-005 -0.000203963 44.767 3.05177e-005 -4.57764e-005 180 -10.655 -81.957 21.7131 -0.000122743 0.000213776 47.309 -4.46333e-005 -9.1426e-006 36.7826 3.05176e-005 -1.52588e-005 -180 
0 0 0 -90 -7.01671e-015 -180 -13.6423 -48.1042 -122.799 -176.785 -40.435 -112.923 -7.65412 1.03892 -97.6369 15.8576 -1.7448 36.3013 12.8316 -9.7443 16.6522 3.21477e-005 -2.43164e-005 -86.4974 168.877 27.2879 -108.7 1.30656 -0.0925993 -93.3873 12.0389 24.0132 1.96909 -26.241 3.57203 19.8349 -1.71724e-005 -6.66232e-006 -86.4975 0.198995 1.3132 130.53 4.09454 6.10252 -10.1079 11.1325 1.99222 -10.9337 0.0326649 5.01869 -9.63592 -38.2924 35.4623 41.0856 13.7216 24.4566 62.5324 76.2176 27.0341 -12.1695 39.2499 -6.17653 85.5313 15.6641 -1.58994 115.153 -34.9754 -24.0545 -21.4088 -147.812 -52.4845 163.968 0.000378008 -2.77569e-005 14.8017 0.000181703 0.000135578 25.7997 0.00491681 -0.00248921 -0.00362759 98.3095 70.3225 -99.2981 0.000164696 -0.000998865 50.6238 0.00160126 0.00011167 51.8876 -0.000598497 -0.000512877 -0.000457629 101.584 81.758 -70.7492 0.000211474 -0.000140566 65.9844 0.00127791 -4.70499e-005 53.2992 -0.000558369 -0.000278337 0.000115472 16.1762 83.9653 34.0644 0.000622777 -0.000791391 52.5461 0.00185082 0.000914539 54.7777 -0.000665088 -0.000654832 0.000691128 -11.6311 79.349 63.13 0.00147611 -0.000345073 50.2709 0.0006325 0.000291724 46.4476 -9.30537e-005 -2.21965e-005 -0.000410239 -67.4229 -25.4983 12.6186 -33.1806 43.2534 72.2591 -6.15608 31.6395 107.793 68.5988 19.0053 -80.2451 167.814 51.5848 142.145 -7.13806e-005 6.26475e-005 7.7192 0.00897083 0.0043997 25.7883 3.05176e-005 -0.000167847 180 -104.437 -77.2289 -82.2278 -0.000216851 0.000116148 53.7597 0.000145612 -1.90301e-005 51.8869 -9.1553e-005 -0.000183106 -180 -45.6923 -86.2955 -11.4378 -0.000109851 7.37696e-006 65.9845 6.35007e-005 8.45016e-005 34.3851 -7.0167e-015 1.52588e-005 180 -16.1922 -83.9809 32.7748 -1.86597e-005 0.000175841 41.9304 4.43373e-005 -0.000212427 44.4295 3.05177e-005 -4.57764e-005 180 -11.7637 -81.9513 19.9559 -0.000122612 0.000211195 47.2011 -4.51493e-005 -1.66565e-005 36.4527 3.05176e-005 -3.05176e-005 -180 
0 0 0 -90 -7.01671e-015 -180 -12.684 -49.4212 -121.284 -176.101 -40.7379 -111.318 -8.03915 1.23251 -98.6331 16.4583 -1.84075 36.4253 12.9599 -10.256 15.5112 3.14117e-005 -7.71641e-005 -86.4974 167.979 28.6839 -107.437 1.29868 -0.121495 -94.6895 11.2547 23.8875 2.08353 -26.999 4.06508 18.7415 -1.75345e-005 -1.73956e-005 -86.4975 0.205145 1.34449 130.5 4.02814 5.74045 -10.1873 10.7558 1.83611 -10.7462 -0.0994868 4.37901 -9.7553 -38.6611 36.2557 40.6986 13.4878 24.4652 62.6124 76.6256 27.1811 -12.5651 39.1924 -7.16514 85.6533 16.1303 -1.50652 115.169 -35.0791 -21.6359 -21.0519 -147.163 -52.4278 164.656 0.000382157 -2.68671e-005 15.0485 0.000182568 0.000133408 25.7997 0.00491681 -0.0025653 -0.00362758 97.9639 70.0786 -99.6754 0.000168267 -0.000996276 50.527 0.00160371 9.19103e-005 51.8876 -0.000598497 -0.000527164 -0.000457629 102.189 81.5568 -71.4572 0.000212451 -0.000150297 65.9844 0.00127942 -3.39759e-005 53.9118 -0.000558367 -0.000280752 0.000115472 16.1764 83.9652 34.1107 0.000627796 -0.000791253 52.8959 0.00185589 0.000919745 55.1063 -0.000665087 -0.000663868 0.000691128 -11.9353 79.2055 64.0569 0.00148901 -0.000346966 50.3862 0.000638356 0.000301798 46.7862 -9.30654e-005 -2.46114e-005 -0.00041024 -66.6395 -25.2294 13.6397 -33.4864 43.5154 71.9419 -6.17206 31.9169 108.308 69.0598 19.5551 -80.3568 168.427 51.4658 141.475 -7.27893e-005 6.34867e-005 7.4901 0.00932092 0.00456394 25.7879 3.05176e-005 -4.57764e-005 180 -104.339 -77.4266 -81.3924 -0.000209513 0.000130442 53.8519 0.000151536 -8.66295e-005 51.8869 -9.1553e-005 7.01671e-015 -180 -42.1155 -86.3042 -7.74494 -0.000115605 -7.10795e-006 65.9845 7.5415e-005 8.16942e-005 33.7744 -7.01671e-015 -1.52588e-005 -180 -16.1929 -83.9814 32.7296 -2.05838e-005 0.00018974 41.5905 3.86756e-005 -0.000224318 44.0921 3.05177e-005 -4.57764e-005 180 -12.8334 -81.9377 18.2618 -0.000122632 0.00021467 47.0933 -4.6077e-005 -2.32941e-005 36.1228 3.05176e-005 -4.57764e-005 -180 
0 0 0 -90 -7.01671e-015 -180 -11.5561 -50.9464 -119.63 -175.7 -40.9131 -109.661 -8.32704 1.45193 -99.8108 16.8524 -2.83929 36.7518 13.1644 -10.6332 14.954 3.11445e-005 -0.000183496 -86.4974 166.912 30.2078 -105.942 1.29727 -0.15416 -96.1438 10.4434 23.4743 2.39185 -27.4777 4.6069 17.4923 -1.78501e-005 -4.16522e-005 -86.4975 0.209547 1.37464 130.535 3.88755 5.46083 -10.179 10.3992 1.70957 -10.5115 -0.161972 3.94892 -9.99152 -39.0666 36.9788 40.3062 13.3659 24.4494 62.5855 76.8671 27.3144 -12.8819 39.1103 -8.26268 85.5512 16.6776 -1.40897 115.339 -35.1611 -19.3135 -20.5469 -146.543 -52.3682 165.312 0.000381612 -2.73788e-005 15.2804 0.000182594 0.0001269 25.7997 0.00491852 -0.00241272 -0.00362727 97.6254 69.8446 -100.029 0.000172295 -0.000994798 50.4301 0.00160619 5.0445e-005 51.8876 -0.000598498 -0.000555737 -0.000457629 102.764 81.3546 -72.1347 0.000217887 -0.000152842 65.9844 0.00129015 -1.62584e-005 54.4733 -0.000558369 -0.000284935 0.000115472 16.1767 83.9652 34.1487 0.000632759 -0.000785441 53.2245 0.00186172 0.000929805 55.4349 -0.000665088 -0.000678949 0.000691127 -12.2019 79.0657 64.9197 0.00149233 -0.000350478 50.4845 0.000645629 0.000313662 47.1043 -9.30537e-005 -2.70262e-005 -0.000410239 -65.9023 -24.9619 14.5886 -33.7867 43.8204 71.7205 -6.13633 32.1757 108.845 69.5665 19.947 -80.4372 169.004 51.3465 140.851 -7.45193e-005 5.62091e-005 7.261 0.00967283 0.00473634 25.7874 3.05176e-005 -4.57764e-005 180 -104.209 -77.6155 -80.5565 -0.000212402 0.000127734 53.9441 0.000142788 -1.60359e-005 51.8867 -9.1553e-005 -3.24611e-014 -180 -38.9494 -86.2948 -4.47837 -0.00011109 1.38882e-006 65.9845 7.41371e-005 6.77876e-005 33.2129 -7.01672e-015 -6.10352e-005 180 -16.1928 -83.981 32.6917 -2.1464e-005 0.000194207 41.263 4.39417e-005 -0.000228457 43.7719 3.05177e-005 -4.57764e-005 180 -13.857 -81.9167 16.6403 -0.000122045 0.000210778 46.9854 -4.51047e-005 -2.07873e-005 35.818 3.05177e-005 -7.6294e-005 -180 
